<?xml version="1.0" encoding="utf-8"?>
<!-- Generator: Adobe Illustrator 22.1.0, SVG Export Plug-In . SVG Version: 6.00 Build 0)  -->
<svg version="1.1" id="Layer_1" xmlns="http://www.w3.org/2000/svg" xmlns:xlink="http://www.w3.org/1999/xlink" x="0px" y="0px"
	 viewBox="0 0 440 94.3" style="enable-background:new 0 0 440 94.3;" xml:space="preserve">
<style type="text/css">
	.st0{fill:#006EFA;}
</style>
<g>
	<rect x="394.3" class="st0" width="45.7" height="91.3"/>
	<path class="st0" d="M0,55.8h11.6c0.9,5.5,6.1,7.9,12.1,7.9c4.9,0,9.1-1.3,9.1-5.8c0-3.8-3.3-4.9-7-5.8l-10.5-2.7
		C8.1,47.6,1.3,43.5,1.3,32.9c0-11,8.8-16.3,20.1-16.3c11.9,0,20.2,5.4,21.3,17.7H30.8c-0.9-4.8-5-6.9-10.2-6.9
		c-3.4,0-7.9,1.3-7.9,5.7c0,3.3,3.2,4.4,6.2,5.2l10.2,2.6c10.1,2.6,15.1,6.9,15.1,17.4c-0.1,11-8.6,16.3-20.6,16.3
		C10.8,74.5,0.6,68.4,0,55.8z"/>
	<path class="st0" d="M66.9,40.6l20.7-22.5h13.6l-20,21.7l23,33.7H91.2L73.8,47.9l-6.9,7.5v18H55.6V1.9h11.3V40.6z"/>
	<path class="st0" d="M131.2,86.2c-1.6,4.6-5.6,7-12.2,7h-5.8V82.4h2.3c5.5,0,5.7-1,7.5-5.6l1.5-4.1l-19.8-54.7h11.7l13.9,39.4
		l13.9-39.4h11.7L131.2,86.2z"/>
	<path class="st0" d="M196.2,71.1V65c-1.6,3.2-7.1,6.3-12.9,6.3c-9.6,0-22-5.9-22-23v-8.8c0-17.1,12.5-23,22-23
		c5.8,0,11.3,3.1,12.9,6.3v-4.8h11.3v53.3c0,18.3-13.4,23-23.1,23c-9.1,0-21.4-4.2-22.9-19.8h11.4c1.2,6,5.6,8.9,11.5,8.9
		C191.3,83.5,196.2,79.5,196.2,71.1z M172.6,48.1c0,8.4,4.8,12.2,11.8,12.2s11.8-3.9,11.8-12.2v-8.4c0-8.4-4.8-12.2-11.8-12.2
		s-11.8,3.9-11.8,12.2V48.1z"/>
	<path class="st0" d="M232.1,35.2h-11.5c1.9-14.7,13.9-18.7,22.8-18.7c9.7,0,23.1,4.7,23.1,23v33.9h-11.3v-5.3
		c-3.5,4.3-9.2,6.3-16.5,6.3c-10.1,0-18.9-5-18.9-16.4c0-6.3,2.8-13.7,12-16.6c6.7-2,14-2.6,23.3-3.2v-0.1
		c-0.5-7.2-5.2-10.7-11.7-10.7C237.8,27.4,233.6,30,232.1,35.2z M255.2,51.4v-3.1c-9.9,0.6-17.4,1.3-21.5,3.8
		c-1.4,0.9-2.7,2.4-2.7,5.2c0,4.5,3.4,6.5,9.4,6.5C247,63.7,255.2,61.7,255.2,51.4z"/>
	<path class="st0" d="M297.1,57.4c0,4.1-0.8,5.3,3.6,5.3h15.9v10.8H299c-9.2,0-13.2-4.5-13.2-13.2V28.7h-11.6V18.1h11.6V5.5h11.3
		v12.6h19.5v10.6h-19.5V57.4z"/>
	<path class="st0" d="M359.4,56h11.5c-1.9,14.7-13.9,18.7-22.8,18.7c-9.7,0-23.1-4.7-23.1-23v-12c0-18.3,13.4-23,23.1-23
		c9.7,0,23.1,4.7,23.1,23v10h-34.9v1.8c0,8.4,4.8,12.3,11.8,12.3C353.8,63.8,357.9,61.2,359.4,56z M336.4,39.5v0.1H360v-0.1
		c-0.1-8.1-4.9-12-11.8-12C341.2,27.5,336.4,31.5,336.4,39.5z"/>
</g>
</svg>
